<svg id="Layer_1" data-name="Layer 1" xmlns="http://www.w3.org/2000/svg" viewBox="0 0 53.76 59.52"><defs><style>.cls-1{fill:#a3ca46;}.cls-2{fill:#a4cb48;}.cls-3{fill:#00afef;}.cls-4{fill:#00a6df;}</style></defs><title>icon</title><path class="cls-1" d="M507.14,675.32c-.62,3-2.32,5.48-3.63,8.14-2.07,4.19-1.76,8.52-.68,12.87.42,1.7,1,3.36,1.45,5.07-5.54-3.33-7.66-8.29-6-14.35a57.22,57.22,0,0,1,3.62-9.11c1.8-3.87,3.71-7.69,4.11-12,.43-.14.54.18.7.37,4.58,5.27,8,11.15,9.34,18.08,1.21,6.44-.06,12.15-5.37,16.53-.8.66-1.2.58-1.89-.17-4.36-4.8-5.12-10.26-3.28-16.3a42.22,42.22,0,0,0,1.7-7.21A4.87,4.87,0,0,0,507.14,675.32Z" transform="translate(-485.12 -659.41)"/><path class="cls-2" d="M487.13,708a30,30,0,0,0,13.78,7.1,25.94,25.94,0,0,0,15.71-1.68c-5.89-.35-11.59-1.33-16.47-5,.4-.27.69,0,1,.14a30.21,30.21,0,0,0,18.09,3.31,4,4,0,0,0,1.88-.7c8.25-5.68,12.56-13.5,12.81-23.53v-.94c.15,0,.25,0,.29,0,1.71,1.59,1.71,1.58,3.51,0a2.37,2.37,0,0,1,1.17-.8,39.29,39.29,0,0,1-.9,9c-2.07,9.07-6.78,16.34-15.19,20.61-11,5.57-21.49,4-31.33-3.06a27.63,27.63,0,0,1-4.59-4.19Z" transform="translate(-485.12 -659.41)"/><path class="cls-3" d="M505.38,702.82c.95-.66.76-1.25.33-2A19.71,19.71,0,0,1,503,687c.06-.31.15-.61.25-1a2.33,2.33,0,0,1,.26,1.58,23.65,23.65,0,0,0,2.44,11.12,7.71,7.71,0,0,0,2.14,2.7,3,3,0,0,0,4.12-.21c4.4-4.07,5.8-9.2,5.3-15-.55-6.35-3.25-11.79-7-16.79-1.2-1.59-1.2-1.58-.08-3.39.39,0,.49.35.67.58,4.39,5.36,8.46,10.93,11.24,17.34a25.57,25.57,0,0,1,1.57,5,10.73,10.73,0,0,1-1.65,8.33C518.09,703.68,511.72,705.11,505.38,702.82Z" transform="translate(-485.12 -659.41)"/><path class="cls-4" d="M485.12,672.76c4.67-6.81,10.71-11.48,18.78-12.85,10.6-1.79,19.86,1.21,27.47,8.86a22.58,22.58,0,0,1,6.48,12.07c.37,2,.37,4-1.08,5.78-.41.5-.62.55-1.11.17A3.43,3.43,0,0,1,534,683.1a8.61,8.61,0,0,0-1.14-5.2c-4.46-9-11.6-14.29-21.61-15.45-9.77-1.14-17.83,2.46-24.6,9.34C486.28,672.17,486,672.77,485.12,672.76Z" transform="translate(-485.12 -659.41)"/></svg>